:SAMPLES-PER-SECOND 30
:FULLY-SPECIFIED
:DEGREES
567
root  -9.90028 36.9138 3.23082 -12.7988 -82.3668 7.1629
RightUpLeg  -14.1204 -24.7492 -7.60864
RightLeg  59.7993 4.96413 8.69602
RightFoot  -7.20666 -0.42742 10.4954
RightToes  6.35927e-011 1.30204e-014 -6.03759e-014
Spine  23.9839 -1.71074 -4.85089
Spine1  -24.8149 -2.08599 8.8554
HEad  -62.0281 3.29251 -4.61945
LeftShoulder1  -0.375069 5.83856 -8.53913
LeftArm  -60.0695 39.2953 -32.0994
LeftForeArm  66.5335 -77.5265 -102.584
LeftHand  2.27053 9.47825 57.6225
RightShoulder  0.3048 -2.06632 14.6908
RightArm  -30.8507 -46.9849 39.9645
RightForeArm  -136.025 48.5778 171.927
RightHand  -2.53798 1.35431 -42.0482
LeftUpLeg  -31.8288 50.4071 14.9867
LeftLeg  82.8003 -1.35183 -11.4641
LeftFoot  7.11736 4.92499 -29.9418
LeftToes  7.40077e-010 7.2695e-011 -6.03601e-011
568
root  -9.76178 36.722 3.22758 -14.5043 -79.3141 7.54993
RightUpLeg  -13.0056 -11.117 -2.31864
RightLeg  58.596 -3.44779 -6.59609
RightFoot  -12.4524 0.0400307 14.7374
RightToes  6.35927e-011 1.30204e-014 -6.03759e-014
Spine  24.5187 -1.52327 -6.40533
Spine1  -23.4217 -2.32348 7.87743
HEad  -63.1982 4.75242 -7.1645
LeftShoulder1  -0.295576 5.20365 -10.1156
LeftArm  -46.5661 37.3786 -32.3725
LeftForeArm  149.632 -66.5246 -155.369
LeftHand  1.52802 8.18602 56.2398
RightShoulder  0.354765 -1.83318 14.612
RightArm  -32.8443 -47.8364 36.8795
RightForeArm  -145.211 55.3583 168.335
RightHand  -2.86083 1.57552 -45.5083
LeftUpLeg  -27.5007 35.9612 11.7922
LeftLeg  76.3733 -3.06593 -13.617
LeftFoot  5.85503 4.09327 -26.8953
LeftToes  7.40077e-010 7.2695e-011 -6.03601e-011
569
root  -9.60843 36.5853 3.30409 -17.673 -76.1278 8.35706
RightUpLeg  -10.5348 -1.8775 1.26073
RightLeg  59.7595 -10.6195 -19.408
RightFoot  -12.2353 0.0478936 17.2115
RightToes  6.35927e-011 1.30204e-014 -6.03759e-014
Spine  24.5121 -1.1258 -6.86544
Spine1  -19.7483 -2.37352 4.74912
HEad  -63.1685 2.64004 -7.50658
LeftShoulder1  -0.0531467 3.78563 -11.0589
LeftArm  -27.7142 31.9145 -30.3815
LeftForeArm  -147.073 -54.8156 -169.213
LeftHand  0.143496 5.64493 46.3674
RightShoulder  0.250051 -2.27582 13.674
RightArm  -40.201 -47.9182 33.5636
RightForeArm  163.555 67.0385 156.046
RightHand  -2.76353 0.457544 -51.6389
LeftUpLeg  -20.7684 20.9896 7.71169
LeftLeg  68.6014 -3.32886 -8.71289
LeftFoot  3.08665 2.85746 -22.3423
LeftToes  7.40077e-010 7.2695e-011 -6.03601e-011
570
root  -9.45478 36.5338 3.54147 -18.5782 -74.443 7.83038
RightUpLeg  -9.92072 -0.917133 1.49524
RightLeg  61.5759 -12.047 -23.1673
RightFoot  -10.1383 -0.279046 19.1914
RightToes  6.35927e-011 1.30204e-014 -6.03759e-014
Spine  23.8244 -0.957959 -5.88189
Spine1  -16.8897 -2.28841 1.83449
HEad  -62.2528 -0.026042 -7.32448
LeftShoulder1  0.148999 2.66985 -10.5829
LeftArm  -19.7972 29.3053 -27.2926
LeftForeArm  -118.281 -52.3144 -171.311
LeftHand  -0.653888 3.68564 43.2184
RightShoulder  0.108671 -2.92433 12.3383
RightArm  -50.1917 -46.7253 32.4851
RightForeArm  104.541 72.7349 139.481
RightHand  -2.68402 0.0184295 -53.7695
LeftUpLeg  -14.3565 10.8483 3.17262
LeftLeg  61.1889 -1.07604 -1.54054
LeftFoot  -5.36705 0.979605 -17.5796
LeftToes  7.40077e-010 7.2695e-011 -6.03601e-011
571
root  -9.31207 36.51 3.91967 -19.3403 -75.8014 8.96729
RightUpLeg  -13.238 -6.07001 -2.22248
RightLeg  64.0117 -7.51211 -16.6597
RightFoot  -6.05978 -0.965442 19.987
RightToes  6.35927e-011 1.30204e-014 -6.03759e-014
Spine  23.0109 -0.602676 -5.10484
Spine1  -16.527 -1.90715 1.42893
HEad  -61.82 -0.668369 -7.63551
LeftShoulder1  0.119212 2.8091 -9.70206
LeftArm  -25.7173 31.6108 -23.0689
LeftForeArm  -136.532 -60.4406 -165.762
LeftHand  0.810634 6.91003 52.2575
RightShoulder  0.0662006 -3.1253 11.4019
RightArm  -55.3825 -45.3378 32.4535
RightForeArm  100.319 68.6864 145.854
RightHand  -3.76373 1.76878 -56.3721
LeftUpLeg  -10.5441 10.2678 0.582466
LeftLeg  55.9502 1.60272 3.22257
LeftFoot  -15.6818 -0.416755 -13.1054
LeftToes  7.40077e-010 7.2695e-011 -6.03601e-011
572
root  -9.15952 36.4023 4.19186 -27.8424 -78.8727 18.4045
RightUpLeg  -19.2896 -12.9927 -8.11455
RightLeg  68.7692 -1.90156 -6.13087
RightFoot  3.9862 -2.19882 16.8501
RightToes  6.35927e-011 1.30204e-014 -6.03759e-014
Spine  22.8772 0.373751 -6.43647
Spine1  -17.7556 -1.28491 2.1575
HEad  -62.4151 0.393479 -7.68556
LeftShoulder1  -0.0530961 3.82209 -9.21836
LeftArm  -39.2408 37.0329 -22.0784
LeftForeArm  161.282 -73.0485 -147.491
LeftHand  2.65858 10.3537 56.1449
RightShoulder  0.167872 -2.6009 11.7327
RightArm  -50.206 -45.3442 32.678
RightForeArm  137.203 55.1766 163.015
RightHand  -4.41837 2.73039 -57.9937
LeftUpLeg  -9.68665 18.3658 0.638083
LeftLeg  54.6636 0.458301 1.20805
LeftFoot  -19.4246 -0.587911 -9.68551
LeftToes  7.40077e-010 7.2695e-011 -6.03601e-011
573
root  -9.02398 36.2338 4.31604 -39.274 -80.1577 29.6858
RightUpLeg  -24.3942 -22.2738 -13.6712
RightLeg  73.7778 0.536853 0.870599
RightFoot  17.5174 -3.16629 12.6305
RightToes  6.35927e-011 1.30204e-014 -6.03759e-014
Spine  23.4952 0.849439 -7.84129
Spine1  -19.045 -1.10273 1.60572
HEad  -63.1162 1.4281 -7.02255
LeftShoulder1  -0.203415 4.73869 -8.98562
LeftArm  -53.6975 40.1039 -25.2123
LeftForeArm  100.712 -75.9297 -128.19
LeftHand  1.75023 9.13078 49.7001
RightShoulder  0.320633 -1.8891 13.0819
RightArm  -36.7822 -46.7997 33.7677
RightForeArm  -169.064 41.7536 172.228
RightHand  -3.06771 1.24972 -50.2554
LeftUpLeg  -9.52495 27.4593 2.96161
LeftLeg  57.13 -3.84759 -5.87669
LeftFoot  -16.0919 -0.233787 -7.97943
LeftToes  7.40077e-010 7.2695e-011 -6.03601e-011
574
root  -8.98927 36.152 4.45136 -36.6055 -78.788 26.085
RightUpLeg  -25.6672 -35.6005 -18.4609
RightLeg  77.284 0.481089 0.987172
RightFoot  25.5884 -4.17976 12.9835
RightToes  6.35927e-011 1.30204e-014 -6.03759e-014
Spine  23.9422 0.133158 -7.26573
Spine1  -19.9497 -1.71274 -0.185981
HEad  -62.8649 1.60423 -6.40915
LeftShoulder1  -0.251175 5.02133 -9.08606
LeftArm  -57.912 39.8466 -27.6915
LeftForeArm  107.477 -69.5421 -144.694
LeftHand  2.50713 10.0398 56.5257
RightShoulder  0.384851 -1.65536 14.1438
RightArm  -28.4519 -49.4862 34.6031
RightForeArm  -130.593 36.9513 175.279
RightHand  -2.37401 0.792047 -43.1003
LeftUpLeg  -9.19427 31.6284 6.36654
LeftLeg  60.4777 -7.46946 -13.3609
LeftFoot  -11.113 0.0817492 -7.50896
LeftToes  7.40077e-010 7.2695e-011 -6.03601e-011
575
root  -9.09518 36.1809 4.62398 -26.4041 -76.5017 15.2631
RightUpLeg  -23.1729 -48.5105 -23.2142
RightLeg  79.7009 -0.00391891 -1.77965
RightFoot  25.8766 -5.77391 17.6117
RightToes  6.35927e-011 1.30204e-014 -6.03759e-014
Spine  23.2561 -0.640772 -6.05849
Spine1  -20.3995 -2.27042 -1.27278
HEad  -62.0099 1.22915 -6.64626
LeftShoulder1  -0.18302 4.57073 -9.83898
LeftArm  -46.1476 37.8283 -27.8906
LeftForeArm  155.749 -55.2107 -164.616
LeftHand  2.8098 9.78233 63.6734
RightShoulder  0.332029 -1.90122 14.0235
RightArm  -30.5055 -51.9899 30.0994
RightForeArm  -139.156 42.0555 173.382
RightHand  -2.78721 1.07387 -47.3818
LeftUpLeg  -9.14479 31.877 8.99016
LeftLeg  62.4359 -9.32932 -18.0643
LeftFoot  -9.1469 0.189126 -6.97345
LeftToes  7.40077e-010 7.2695e-011 -6.03601e-011
576
root  -9.22392 36.2651 4.7623 -20.8966 -75.7528 9.4209
RightUpLeg  -19.7731 -53.4677 -25.9559
RightLeg  79.9154 0.0854136 -1.28771
RightFoot  25.3834 -6.20629 19.1297
RightToes  6.35927e-011 1.30204e-014 -6.03759e-014
Spine  22.048 -0.355727 -5.49575
Spine1  -20.4807 -1.91205 -1.02283
HEad  -61.7027 0.743725 -7.83158
LeftShoulder1  -0.0369963 3.7078 -10.6104
LeftArm  -27.8462 35.4337 -28.319
LeftForeArm  -139.36 -45.0285 -172.911
LeftHand  0.293549 6.01002 48.0388
RightShoulder  0.241499 -2.28706 13.1518
RightArm  -39.3041 -52.0451 27.6977
RightForeArm  174.196 53.1654 166.827
RightHand  -3.00745 0.58167 -54.5941
LeftUpLeg  -9.04555 30.3749 10.1152
LeftLeg  62.7238 -9.71806 -19.0386
LeftFoot  -8.93212 0.216705 -7.70112
LeftToes  7.40077e-010 7.2695e-011 -6.03601e-011
577
root  -9.25411 36.4242 4.82322 -20.8817 -77.7107 8.81274
RightUpLeg  -18.2912 -47.2347 -23.8018
RightLeg  76.7013 1.02132 3.46227
RightFoot  27.075 -5.03654 14.9012
RightToes  6.35927e-011 1.30204e-014 -6.03759e-014
Spine  21.6382 0.40375 -4.5655
Spine1  -20.6035 -0.983286 -0.474061
HEad  -62.3443 0.405826 -9.53548
LeftShoulder1  0.0798292 3.05308 -10.4449
LeftArm  -22.5785 35.553 -27.0292
LeftForeArm  -118.318 -44.4557 -173.66
LeftHand  -0.53601 3.85939 38.0788
RightShoulder  0.181945 -2.55431 12.5108
RightArm  -49.8707 -49.619 31.2665
RightForeArm  129.615 59.7067 159.683
RightHand  -2.94987 0.340955 -55.4871
LeftUpLeg  -8.6689 26.8894 9.51762
LeftLeg  61.6795 -8.5544 -16.1294
LeftFoot  -8.53089 0.336173 -11.5719
LeftToes  7.40077e-010 7.2695e-011 -6.03601e-011
578
root  -9.27481 36.5821 4.77183 -26.5079 -80.7589 13.5125
RightUpLeg  -16.1745 -32.2688 -19.2452
RightLeg  71.5584 3.26512 10.0318
RightFoot  22.8555 -3.70885 12.6316
RightToes  6.35927e-011 1.30204e-014 -6.03759e-014
Spine  22.0363 0.685276 -3.26433
Spine1  -20.904 -0.3862 -0.00849751
HEad  -63.2793 0.49162 -10.8328
LeftShoulder1  0.0924977 2.96853 -9.90686
LeftArm  -31.7634 36.7407 -23.4042
LeftForeArm  -148.461 -52.4007 -169.369
LeftHand  0.935591 7.08719 50.8331
RightShoulder  0.206436 -2.43196 12.5278
RightArm  -50.4424 -46.9474 35.1279
RightForeArm  132.038 56.4423 161.716
RightHand  -3.55913 1.21436 -57.7237
LeftUpLeg  -8.24931 21.0535 7.01873
LeftLeg  60.3858 -5.47726 -9.7287
LeftFoot  -8.45655 0.478747 -16.9601
LeftToes  7.40077e-010 7.2695e-011 -6.03601e-011
579
root  -9.37663 36.601 4.64699 -35.4238 -82.6996 21.3206
RightUpLeg  -11.6709 -14.6775 -13.8594
RightLeg  66.4576 4.13734 9.92969
RightFoot  7.46285 -2.61979 16.449
RightToes  6.35927e-011 1.30204e-014 -6.03759e-014
Spine  21.9033 0.45622 -2.86737
Spine1  -20.3119 -0.419988 0.828073
HEad  -63.5285 1.07306 -10.7042
LeftShoulder1  0.0507799 3.21365 -10.1641
LeftArm  -46.633 39.5064 -23.3741
LeftForeArm  154.049 -60.7769 -161.112
LeftHand  3.63802 11.5651 60.8567
RightShoulder  0.34975 -1.73616 12.9591
RightArm  -38.0004 -45.4019 37.4672
RightForeArm  172.033 46.5924 169.368
RightHand  -3.94683 2.04769 -56.2289
LeftUpLeg  -7.90571 13.449 2.87024
LeftLeg  59.9798 -0.713335 -0.702149
LeftFoot  -8.74746 0.525488 -20.7328
LeftToes  7.40077e-010 7.2695e-011 -6.03601e-011
580
root  -9.45217 36.3947 4.49665 -38.2899 -83.1925 23.2044
RightUpLeg  -6.82139 -0.647863 -6.1408
RightLeg  62.5275 -0.452709 -1.45926
RightFoot  -8.7549 -0.5741 20.1921
RightToes  6.35927e-011 1.30204e-014 -6.03759e-014
Spine  20.4022 0.231454 -2.82201
Spine1  -17.8489 -0.556318 1.17325
HEad  -62.7993 1.49362 -9.34335
LeftShoulder1  0.0781421 3.06755 -10.6137
LeftArm  -49.4581 39.5111 -24.5959
LeftForeArm  145.311 -59.6157 -160.691
LeftHand  1.95958 9.32606 53.2356
RightShoulder  0.543978 -0.823109 13.4496
RightArm  -20.8982 -45.5493 40.2644
RightForeArm  -140.25 39.7283 174.184
RightHand  -2.69863 1.56655 -43.5607
LeftUpLeg  -7.66984 5.5656 -1.54987
LeftLeg  60.7965 4.25671 8.82098
LeftFoot  -9.61732 0.387864 -21.7368
LeftToes  7.40077e-010 7.2695e-011 -6.03601e-011
